<?xml version="1.0" standalone="no"?>
<!DOCTYPE svg PUBLIC "-//W3C//DTD SVG 20010904//EN"
 "http://www.w3.org/TR/2001/REC-SVG-20010904/DTD/svg10.dtd">
<svg version="1.0" xmlns="http://www.w3.org/2000/svg"
 width="700.000000pt" height="700.000000pt" viewBox="0 0 700.000000 700.000000"
 preserveAspectRatio="xMidYMid meet">
<metadata>
Created by potrace 1.11, written by Peter Selinger 2001-2013
</metadata>
<g transform="translate(0.000000,700.000000) scale(0.100000,-0.100000)"
fill="#000000" stroke="none">
<path d="M3777 6284 c-1 -1 -31 -5 -67 -9 -36 -4 -68 -9 -71 -11 -3 -2 -37 -6
-76 -9 -38 -3 -80 -7 -92 -10 -13 -2 -49 -7 -80 -11 -31 -3 -58 -8 -61 -9 -3
-2 -34 -6 -70 -10 -36 -4 -69 -9 -74 -12 -14 -9 1 -129 22 -176 11 -23 28 -50
39 -60 17 -15 162 -49 357 -83 17 -3 34 -8 38 -13 5 -4 9 -1102 10 -2441 l3
-2435 75 -37 c112 -56 300 -122 440 -157 132 -32 147 -35 250 -51 36 -6 76
-13 89 -15 131 -23 477 -23 646 0 79 10 176 27 235 41 36 9 73 17 83 19 60 13
219 74 322 124 367 179 645 488 808 896 54 136 104 321 122 452 3 21 7 52 10
68 26 173 25 480 0 665 -4 25 -8 58 -10 74 -3 15 -7 35 -9 45 -3 9 -8 32 -11
51 -18 113 -88 307 -164 458 -155 306 -436 533 -740 597 -135 28 -279 36 -406
22 -199 -23 -391 -87 -570 -190 -175 -101 -376 -281 -505 -453 -38 -50 -76
-91 -84 -91 -9 0 -16 3 -17 6 0 3 -1 559 -1 1236 -1 1264 -3 1309 -41 1381
-37 71 -115 123 -207 139 -38 7 -188 13 -193 9z m1678 -2444 c33 -7 69 -16 80
-20 123 -48 184 -84 252 -150 169 -163 270 -445 300 -840 14 -180 7 -590 -12
-725 -2 -16 -6 -48 -9 -70 -7 -51 -17 -105 -32 -175 -3 -14 -7 -35 -10 -47 -2
-12 -18 -61 -34 -110 -17 -48 -32 -92 -33 -98 -13 -40 -62 -133 -101 -193
-138 -209 -347 -337 -631 -386 -185 -32 -427 -22 -605 25 -41 11 -108 34 -149
51 -71 30 -208 101 -224 117 -6 6 -8 427 -7 1693 l0 336 61 74 c157 190 320
333 473 414 77 41 226 99 226 88 0 -3 8 0 19 5 10 6 47 13 82 17 35 3 66 8 68
10 8 7 232 -5 286 -16z"/>
<path d="M1547 4254 c-1 -1 -47 -4 -102 -8 -89 -5 -117 -8 -190 -21 -373 -63
-685 -284 -799 -565 -46 -112 -60 -195 -59 -340 2 -343 182 -592 572 -789 156
-79 273 -130 489 -212 83 -32 171 -67 195 -78 23 -10 74 -33 113 -50 215 -93
365 -221 429 -364 44 -100 61 -263 41 -387 -52 -330 -332 -517 -744 -497 -208
10 -350 65 -462 177 -84 84 -153 217 -174 336 -3 16 -9 50 -14 75 -5 25 -10
81 -11 125 -3 87 -9 100 -72 140 -118 75 -299 69 -406 -12 -106 -80 -138 -276
-75 -457 79 -229 293 -414 602 -520 88 -31 180 -54 241 -63 24 -3 55 -8 69
-10 179 -25 418 -23 620 6 389 55 733 261 896 535 171 287 172 708 3 957 -60
88 -196 216 -309 290 -101 67 -388 205 -577 279 -13 5 -33 13 -45 19 -13 5
-63 25 -113 45 -179 72 -371 160 -423 192 -29 18 -54 33 -57 33 -7 0 -44 30
-107 89 -144 134 -181 382 -87 578 32 68 131 161 211 201 212 104 550 91 729
-28 160 -105 237 -254 253 -486 3 -52 9 -60 58 -85 128 -65 273 -58 377 19
144 106 137 358 -14 530 -48 53 -155 142 -173 142 -6 0 -12 3 -14 8 -7 16
-130 73 -229 106 -90 30 -181 52 -294 71 -59 9 -340 25 -348 19z"/>
</g>
</svg>
