<svg xmlns="http://www.w3.org/2000/svg" viewBox="0 0 143.933 31.75" height="120" width="544"><g><path d="M15.126 25.135q-1.813 0-2.98-.77-1.142-.794-1.142-1.886 0-.571.298-.844t.745-.273q.571 0 .894.372 0 1.316.596 1.986.596.67 1.787.67 1.093 0 1.713-.546.621-.546.621-1.539 0-.77-.397-1.241-.397-.472-1.043-.77-.645-.298-1.39-.57-.795-.299-1.564-.696-.77-.397-1.266-1.018-.497-.645-.497-1.589 0-1.365 1.092-2.21 1.093-.844 2.93-.844 1.043 0 1.887.274.844.273 1.34.77.497.47.497 1.092 0 .471-.298.744-.298.249-.745.249-.397 0-.745-.273 0-1.018-.57-1.565-.572-.546-1.565-.546-.918 0-1.464.447-.547.447-.547 1.217 0 .645.348 1.067.372.397.968.67.596.274 1.266.547.87.323 1.713.745.87.422 1.44 1.092.571.645.571 1.738 0 1.067-.57 1.862-.572.77-1.59 1.216-1.017.422-2.333.422zM25.205 25.135q-1.191 0-1.787-.744-.571-.745-.571-2.26V11.505q.223-.198.546-.347.348-.174.72-.298.397-.124.745-.149v11.122q0 .969.273 1.416.298.422 1.018.422.57 0 1.216-.249.67-.248 1.291-.794l.348.62q-.248.348-.844.795-.571.447-1.34.77-.77.322-1.615.322zm2.781-10.129l-6.827-.124q0-.348.074-.62.1-.299.273-.423l6.952-.273q.05.124.074.248.025.1.025.224 0 .397-.149.67-.149.248-.422.298zM34.664 25.135q-1.514 0-2.656-.67-1.117-.695-1.738-1.912-.62-1.216-.62-2.805 0-1.812.744-3.252.77-1.44 2.036-2.284 1.266-.845 2.756-.845 1.29 0 2.234.596.968.571 1.515 1.614.546 1.043.546 2.408 0 .472-.174.646-.174.149-.397.149h-7.82v-.77l6.752-.174-.273.273q.05-1.191-.298-2.06-.323-.87-.943-1.34-.596-.497-1.415-.497-1.366 0-2.235 1.266-.869 1.266-.869 3.575 0 1.49.422 2.607.447 1.092 1.291 1.713.844.62 2.036.62.993 0 1.912-.496.918-.522 1.638-1.44l.323.62q-.521.745-1.29 1.316-.77.547-1.664.844-.87.298-1.813.298zM44.148 25.135q-1.167 0-1.936-.67-.77-.695-.77-1.837 0-1.415.894-2.309.918-.894 2.73-1.316l3.253-.745-.323.273V16.67q0-1.315-.446-1.911-.447-.62-1.39-.62-1.143 0-1.764.694-.62.67-.62 1.962-.124.124-.348.198-.223.075-.447.075-.422 0-.67-.249-.248-.248-.248-.67 0-.82.57-1.44.572-.62 1.565-.968 1.018-.373 2.26-.373 1.836 0 2.68.92.87.918.87 2.929v5.834q0 .422.173.645.174.224.497.224.273 0 .596-.15.347-.148.57-.322l.174.67q-.397.472-1.018.745-.62.273-1.191.273-.795 0-1.242-.496-.446-.521-.446-1.465h-.1q-.695.944-1.713 1.465-1.018.496-2.16.496zm.944-1.166q.893 0 1.713-.447.819-.447 1.365-1.242l-.149.422v-3.724l.323.05-2.83.67q-1.068.249-1.639.87-.546.595-.546 1.514 0 .869.472 1.39.471.497 1.29.497zM53.707 24.837q0-.794.397-.893l1.415-.472-.273.348v-9.137l.298.373-1.465-.273q-.372-.075-.372-.87.943-.148 1.415-.198.496-.074.819-.074.645 0 .919.322.273.323.273 1.043v.919l-.1-.075h.224q.943-1.142 2.185-1.812 1.266-.67 2.408-.67 1.39 0 2.06.993.67.993.67 3.004v6.504l-.297-.347 1.688.397q0 .372-.1.57-.074.175-.322.348h-4.345q0-.794.397-.893l1.242-.373-.273.348v-6.505q0-2.631-1.862-2.631-.695 0-1.39.298-.696.273-1.292.77-.57.47-.968 1.042l.199-.472v7.448l-.298-.347 1.688.397q0 .372-.1.57-.074.175-.347.348zm14.821 0q0-.794.397-.893l1.242-.373-.273.348v-6.505q0-2.631-1.862-2.631-1.018 0-2.011.62-.969.596-1.59 1.465l-.272-1.018h.372q.968-1.142 2.21-1.812 1.266-.67 2.408-.67 1.415 0 2.085.993.67.993.67 3.004v6.405l-.297-.323 1.837.472q0 .372-.1.57-.074.175-.322.348zM80.246 25.135q-.943 0-1.986-.248-1.018-.223-1.887-.695V7.657l.274.373-1.44-.273q-.398-.075-.398-.87.993-.148 1.465-.198.472-.074.795-.074.62 0 .893.273.298.273.298.869v8.217l-.099-.149h.223q.795-1.167 1.912-1.812 1.142-.646 2.334-.646 1.241 0 2.135.646.919.645 1.415 1.837.521 1.167.521 2.78 0 1.962-.77 3.427-.744 1.465-2.184 2.284-1.44.794-3.5.794zm.522-.968q1.961 0 2.855-1.216.894-1.217.894-3.849 0-2.284-.67-3.351-.671-1.068-2.111-1.068-.77 0-1.415.298-.62.273-1.167.82-.546.52-1.068 1.266l.249-.571v7.25l-.249-.448q.72.472 1.341.67.646.2 1.34.2zM88.836 24.837q0-.744.398-.893l1.415-.472-.273.422v-9.21l.298.372-1.465-.273q-.174-.05-.273-.249-.1-.223-.1-.62.969-.15 1.44-.199.472-.074.795-.074.596 0 .894.347.298.323.298 1.093v1.042l-.15-.149h.249q.67-1.167 1.638-1.887.994-.72 1.887-.72.944 0 1.341.423.397.397.397 1.017 0 .472-.298.82-.273.347-.72.347-.347-.645-.72-.869-.372-.223-.819-.223-.695 0-1.465.62-.77.621-1.39 1.49l.174-.471v7.348l-.348-.447 2.16.472q0 .372-.1.571-.074.199-.347.372zM101.076 25.135q-1.167 0-1.936-.67-.77-.695-.77-1.837 0-1.415.894-2.309.918-.894 2.73-1.316l3.253-.745-.323.273V16.67q0-1.315-.447-1.911-.447-.62-1.39-.62-1.142 0-1.763.694-.62.67-.62 1.962-.124.124-.348.198-.223.075-.447.075-.422 0-.67-.249-.248-.248-.248-.67 0-.82.57-1.44.572-.62 1.565-.968 1.018-.373 2.259-.373 1.837 0 2.681.92.87.918.87 2.929v5.834q0 .422.173.645.174.224.497.224.273 0 .595-.15.348-.148.571-.322l.174.67q-.397.472-1.018.745-.62.273-1.191.273-.795 0-1.242-.496-.447-.521-.447-1.465h-.099q-.695.944-1.713 1.465-1.018.496-2.16.496zm.944-1.166q.893 0 1.713-.447.819-.447 1.365-1.242l-.149.422v-3.724l.323.05-2.83.67q-1.068.249-1.639.87-.546.595-.546 1.514 0 .869.472 1.39.471.497 1.29.497zM110.436 24.837q0-.422.1-.62.098-.199.297-.273l1.49-.472-.273.348V7.657l.297.373-1.539-.273q-.372-.075-.372-.87.82-.123 1.39-.198.571-.074 1.092-.074 1.142 0 1.142 1.44v15.814l-.322-.347 1.713.397q0 .372-.1.57-.074.175-.347.348zm10.328.298q-.67 0-1.614-.57-.919-.596-2.135-2.012-1.217-1.415-2.806-3.897l4.221-3.724-.124.273-1.415-.422q0-.547.323-.944h4.32q0 .497-.075.695-.075.174-.323.249l-1.986.67 1.34-.795-4.692 4.171.224-.645q.869 1.29 1.911 2.458 1.043 1.142 2.136 2.01 1.092.87 2.085 1.366 0 .497-.397.82-.397.297-.993.297zM128.112 25.135q-1.514 0-2.656-.67-1.117-.695-1.738-1.912-.62-1.216-.62-2.805 0-1.812.744-3.252.77-1.44 2.036-2.284 1.266-.845 2.756-.845 1.29 0 2.234.596.968.571 1.515 1.614.546 1.043.546 2.408 0 .472-.174.646-.174.149-.397.149h-7.82v-.77l6.752-.174-.273.273q.05-1.191-.298-2.06-.322-.87-.943-1.34-.596-.497-1.415-.497-1.366 0-2.235 1.266-.869 1.266-.869 3.575 0 1.49.422 2.607.447 1.092 1.291 1.713.845.62 2.036.62.993 0 1.912-.496.918-.522 1.638-1.44l.323.62q-.521.745-1.29 1.316-.77.547-1.664.844-.87.298-1.813.298z"/></g><path d="M.53.53h142.874v30.69H.53z" fill="none" stroke="#000" stroke-width="1.058"/></svg>